<mxfile host="app.diagrams.net" modified="2023-09-19T10:41:29.079Z" agent="Mozilla/5.0 (Windows NT 10.0; Win64; x64) AppleWebKit/537.36 (KHTML, like Gecko) Chrome/116.0.0.0 Safari/537.36 OPR/102.0.0.0 (Edition std-1)" etag="m-uyhCaeogJy0gYjwS2m" version="21.7.5" type="device">
  <diagram name="Page-1" id="rkZNH69ZYbZABoDn4leT">
    <mxGraphModel dx="557" dy="303" grid="1" gridSize="10" guides="1" tooltips="1" connect="1" arrows="1" fold="1" page="1" pageScale="1" pageWidth="850" pageHeight="1100" math="0" shadow="0">
      <root>
        <mxCell id="0" />
        <mxCell id="1" parent="0" />
        <mxCell id="nzP6fsCWfK1H_bQ6tM55-1" value="" style="rhombus;whiteSpace=wrap;html=1;" vertex="1" parent="1">
          <mxGeometry x="310" y="240" width="130" height="130" as="geometry" />
        </mxCell>
        <mxCell id="nzP6fsCWfK1H_bQ6tM55-2" value="&lt;font style=&quot;font-size: 8px;&quot;&gt;Descontração&lt;/font&gt;" style="text;html=1;strokeColor=none;fillColor=none;align=center;verticalAlign=middle;whiteSpace=wrap;rounded=0;" vertex="1" parent="1">
          <mxGeometry x="345" y="217" width="60" height="30" as="geometry" />
        </mxCell>
        <mxCell id="nzP6fsCWfK1H_bQ6tM55-3" value="&lt;font style=&quot;font-size: 8px;&quot;&gt;Consciência&lt;/font&gt;" style="text;html=1;strokeColor=none;fillColor=none;align=center;verticalAlign=middle;whiteSpace=wrap;rounded=0;" vertex="1" parent="1">
          <mxGeometry x="345" y="360" width="60" height="30" as="geometry" />
        </mxCell>
        <mxCell id="nzP6fsCWfK1H_bQ6tM55-4" value="&lt;font style=&quot;font-size: 8px;&quot;&gt;Modéstia&lt;/font&gt;" style="text;html=1;strokeColor=none;fillColor=none;align=center;verticalAlign=middle;whiteSpace=wrap;rounded=0;" vertex="1" parent="1">
          <mxGeometry x="260" y="290" width="60" height="30" as="geometry" />
        </mxCell>
        <mxCell id="nzP6fsCWfK1H_bQ6tM55-5" value="&lt;font style=&quot;font-size: 8px;&quot;&gt;Pacificidade&lt;/font&gt;" style="text;html=1;strokeColor=none;fillColor=none;align=center;verticalAlign=middle;whiteSpace=wrap;rounded=0;" vertex="1" parent="1">
          <mxGeometry x="437" y="290" width="60" height="30" as="geometry" />
        </mxCell>
      </root>
    </mxGraphModel>
  </diagram>
</mxfile>
